# Made in Blockbench 4.12.4
mtllib digin.mtl

o sphere
v 0 0.75 0
v 0 1.25 0
v 0.07322330470336312 1.176776695296637 0.1767766952966369
v 0.10355339059327377 1 0.25
v 0.07322330470336313 0.8232233047033631 0.17677669529663692
v 0.1767766952966369 1.176776695296637 0.07322330470336313
v 0.25 1 0.10355339059327379
v 0.17677669529663692 0.8232233047033631 0.07322330470336315
v 0.1767766952966369 1.176776695296637 -0.0732233047033631
v 0.25 1 -0.10355339059327376
v 0.17677669529663692 0.8232233047033631 -0.07322330470336312
v 0.07322330470336315 1.176776695296637 -0.1767766952966369
v 0.1035533905932738 1 -0.25
v 0.07322330470336315 0.8232233047033631 -0.17677669529663692
v -0.0732233047033631 1.176776695296637 -0.1767766952966369
v -0.10355339059327374 1 -0.25000000000000006
v -0.0732233047033631 0.8232233047033631 -0.17677669529663692
v -0.17677669529663684 1.176776695296637 -0.07322330470336323
v -0.24999999999999994 1 -0.10355339059327393
v -0.17677669529663687 0.8232233047033631 -0.07322330470336325
v -0.17677669529663687 1.176776695296637 0.07322330470336316
v -0.24999999999999997 1 0.10355339059327383
v -0.1767766952966369 0.8232233047033631 0.07322330470336318
v -0.07322330470336325 1.176776695296637 0.17677669529663684
v -0.10355339059327394 1 0.24999999999999994
v -0.07322330470336325 0.8232233047033631 0.17677669529663687
vt 0.052976196241490345 0.9841949794374235
vt 0.01029694154115654 0.9246938715214861
vt 0.109375 0.8986838116438445
vt 0.505359375 0.5
vt 0.49019375 0.40625
vt 0.59375 0.40625
vt 0.578584375 0.5
vt 0.58394375 1
vt 0.599109375 0.90625
vt 0.672334375 0.90625
vt 0.6875 1
vt 0.1977969415411566 0.6532511079159373
vt 0.24047619624149047 0.59375
vt 0.296875 0.679261167793579
vt 0.01029694154115654 0.9246938715214861
vt 0.018246436382284542 0.8519016593228526
vt 0.10937499999999999 0.8986838116438445
vt 0.4633875 0.75
vt 0.448221875 0.65625
vt 0.551778125 0.65625
vt 0.5366124999999999 0.75
vt 0.416971875 0.875
vt 0.4321375 0.78125
vt 0.5053624999999999 0.78125
vt 0.520528125 0.875
vt 0.20574643638228454 0.7260433201145708
vt 0.1977969415411566 0.6532511079159373
vt 0.296875 0.6792611677935789
vt 0.018246436382284542 0.8519016593228526
vt 0.07276250000000001 0.8030150616438445
vt 0.109375 0.8986838116438445
vt 0.577665625 0.875
vt 0.5625 0.78125
vt 0.66605625 0.78125
vt 0.650890625 0.875
vt 0.46875 0.625
vt 0.483915625 0.53125
vt 0.557140625 0.53125
vt 0.57230625 0.625
vt 0.2602625 0.7749299177935789
vt 0.20574643638228457 0.7260433201145708
vt 0.296875 0.6792611677935789
vt 0.07276250000000001 0.8030150616438445
vt 0.1459875 0.8030150616438445
vt 0.109375 0.8986838116438445
vt 0.0258875 0.625
vt 0.010721874999999999 0.53125
vt 0.11427812500000001 0.53125
vt 0.09911249999999999 0.625
vt 0.010721874999999999 0.75
vt 0.0258875 0.65625
vt 0.09911249999999999 0.65625
vt 0.11427812500000001 0.75
vt 0.3334875 0.7749299177935789
vt 0.2602625 0.7749299177935789
vt 0.296875 0.6792611677935789
vt 0.1459875 0.8030150616438445
vt 0.20050356361771546 0.8519016593228526
vt 0.109375 0.8986838116438445
vt 0.630359375 0.75
vt 0.61519375 0.65625
vt 0.71875 0.65625
vt 0.703584375 0.75
vt 0.17769374999999998 0.4375
vt 0.192859375 0.34375
vt 0.266084375 0.34375
vt 0.28125 0.4375
vt 0.3880035636177155 0.7260433201145708
vt 0.3334875 0.7749299177935789
vt 0.296875 0.6792611677935789
vt 0.20050356361771546 0.8519016593228526
vt 0.20845305845884346 0.9246938715214861
vt 0.10937500000000001 0.8986838116438445
vt 0.3383875 0.5625
vt 0.323221875 0.46875
vt 0.426778125 0.46875
vt 0.4116125 0.5625
vt 0.166971875 0.5625
vt 0.1821375 0.46875
vt 0.2553625 0.46875
vt 0.270528125 0.5625
vt 0.39595305845884343 0.6532511079159373
vt 0.3880035636177155 0.7260433201145708
vt 0.296875 0.6792611677935789
vt 0.20845305845884346 0.9246938715214861
vt 0.16577380375850967 0.9841949794374235
vt 0.109375 0.8986838116438445
vt 0.327665625 0.4375
vt 0.3125 0.34375
vt 0.41605625 0.34375
vt 0.400890625 0.4375
vt 0 0.5
vt 0.015165625000000002 0.40625
vt 0.088390625 0.40625
vt 0.10355625 0.5
vt 0.35327380375850953 0.59375
vt 0.39595305845884343 0.6532511079159373
vt 0.296875 0.679261167793579
vt 0.1244751609194249 1
vt 0.05297619624149034 0.9841949794374235
vt 0.10937499999999997 0.8986838116438446
vt 0.4321375 1
vt 0.416971875 0.90625
vt 0.520528125 0.90625
vt 0.5053624999999999 1
vt 0.260721875 1
vt 0.2758875 0.90625
vt 0.3491125 0.90625
vt 0.364278125 1
vt 0.08106900419555893 0.32626313127002393
vt 0.01268099580444107 0.3524352716734451
vt 0.012680995804441084 0.25
vn 0.27059805007309845 0.923879532511287 0.2705980500730985
vn 0.6532814824381883 0.38268343236508984 0.6532814824381883
vn 0.6532814824381883 -0.3826834323650896 0.6532814824381883
vn 0.27059805007309845 -0.9238795325112867 0.27059805007309845
vn 0.3826834323650898 0.923879532511287 0
vn 0.9238795325112868 0.38268343236508984 0
vn 0.923879532511287 -0.3826834323650897 0
vn 0.3826834323650898 -0.9238795325112867 0
vn 0.27059805007309856 0.923879532511287 -0.27059805007309845
vn 0.6532814824381884 0.38268343236508984 -0.6532814824381882
vn 0.6532814824381884 -0.3826834323650896 -0.6532814824381883
vn 0.27059805007309856 -0.9238795325112867 -0.27059805007309845
vn 0 0.923879532511287 -0.3826834323650898
vn 2.626500708507132e-16 0.38268343236508984 -0.9238795325112868
vn 0 -0.38268343236508967 -0.923879532511287
vn 0 -0.9238795325112867 -0.3826834323650898
vn -0.27059805007309834 0.923879532511287 -0.2705980500730985
vn -0.6532814824381881 0.38268343236509006 -0.6532814824381884
vn -0.653281482438188 -0.38268343236508984 -0.6532814824381885
vn -0.2705980500730984 -0.923879532511287 -0.2705980500730986
vn -0.3826834323650897 0.9238795325112867 -7.252881433641306e-17
vn -0.9238795325112867 0.3826834323650898 -1.3132503542535645e-16
vn -0.9238795325112868 -0.38268343236508956 -1.8572164617766623e-16
vn -0.3826834323650899 -0.9238795325112867 -7.252881433641306e-17
vn -0.27059805007309845 0.9238795325112868 0.27059805007309834
vn -0.6532814824381885 0.38268343236509 0.6532814824381881
vn -0.6532814824381884 -0.38268343236508967 0.6532814824381883
vn -0.2705980500730985 -0.923879532511287 0.27059805007309845
vn -1.4505762867282612e-16 0.9238795325112867 0.3826834323650897
vn -2.6265007085071295e-16 0.3826834323650898 0.9238795325112867
vn -3.7144329235533245e-16 -0.38268343236508956 0.9238795325112868
vn -1.4505762867282617e-16 -0.9238795325112867 0.3826834323650898
usemtl m_f10f01f8-c0b6-7e20-ec05-5259afd02a90
f 3/1/1 6/2/1 2/3/1
f 3/4/2 4/5/2 7/6/2 6/7/2
f 4/8/3 5/9/3 8/10/3 7/11/3
f 8/12/4 5/13/4 1/14/4
f 6/15/5 9/16/5 2/17/5
f 6/18/6 7/19/6 10/20/6 9/21/6
f 7/22/7 8/23/7 11/24/7 10/25/7
f 11/26/8 8/27/8 1/28/8
f 9/29/9 12/30/9 2/31/9
f 9/32/10 10/33/10 13/34/10 12/35/10
f 10/36/11 11/37/11 14/38/11 13/39/11
f 14/40/12 11/41/12 1/42/12
f 12/43/13 15/44/13 2/45/13
f 12/46/14 13/47/14 16/48/14 15/49/14
f 13/50/15 14/51/15 17/52/15 16/53/15
f 17/54/16 14/55/16 1/56/16
f 15/57/17 18/58/17 2/59/17
f 15/60/18 16/61/18 19/62/18 18/63/18
f 16/64/19 17/65/19 20/66/19 19/67/19
f 20/68/20 17/69/20 1/70/20
f 18/71/21 21/72/21 2/73/21
f 18/74/22 19/75/22 22/76/22 21/77/22
f 19/78/23 20/79/23 23/80/23 22/81/23
f 23/82/24 20/83/24 1/84/24
f 21/85/25 24/86/25 2/87/25
f 21/88/26 22/89/26 25/90/26 24/91/26
f 22/92/27 23/93/27 26/94/27 25/95/27
f 26/96/28 23/97/28 1/98/28
f 24/99/29 3/100/29 2/101/29
f 24/102/30 25/103/30 4/104/30 3/105/30
f 25/106/31 26/107/31 5/108/31 4/109/31
f 5/110/32 26/111/32 1/112/32
o tube
v 0 0.25 0.25
v 0 0.75 0.25
v 0 0.25 0
v 0 0.75 0
v 0.17677669529663687 0.25 0.1767766952966369
v 0.17677669529663687 0.75 0.1767766952966369
v 0 0.25 0
v 0 0.75 0
v 0.25 0.25 1.5308084989341915e-17
v 0.25 0.75 1.5308084989341915e-17
v 0 0.25 0
v 0 0.75 0
v 0.1767766952966369 0.25 -0.17677669529663687
v 0.1767766952966369 0.75 -0.17677669529663687
v 0 0.25 0
v 0 0.75 0
v 3.061616997868383e-17 0.25 -0.25
v 3.061616997868383e-17 0.75 -0.25
v 0 0.25 0
v 0 0.75 0
v -0.17677669529663687 0.25 -0.17677669529663692
v -0.17677669529663687 0.75 -0.17677669529663692
v 0 0.25 0
v 0 0.75 0
v -0.25 0.25 -4.592425496802574e-17
v -0.25 0.75 -4.592425496802574e-17
v 0 0.25 0
v 0 0.75 0
v -0.17677669529663692 0.25 0.17677669529663684
v -0.17677669529663692 0.75 0.17677669529663684
v 0 0.25 0
v 0 0.75 0
vt 0.5 0.75
vt 0.59375 0.75
vt 0.59375 1
vt 0.5 1
vt 0 1
vt 0 1
vt 0 1
vt 0 1
vt 0.62768125 0.84375
vt 0.62768125 0.84375
vt 0.71606875 0.7553624999999999
vt 0.62768125 0.71875
vt 0.125 0.75
vt 0.2133875 0.7866124999999999
vt 0.125 0.875
vt 0.125 0.875
vt 0.125 0.46875
vt 0.21875 0.46875
vt 0.21875 0.71875
vt 0.125 0.71875
vt 0 1
vt 0 1
vt 0 1
vt 0 1
vt 0.625 0.6875
vt 0.625 0.6875
vt 0.75 0.6875
vt 0.7133875 0.5991124999999999
vt 0.2133875 0.7866124999999999
vt 0.25 0.875
vt 0.125 0.875
vt 0.125 0.875
vt 0 0.46875
vt 0.09375 0.46875
vt 0.09375 0.71875
vt 0 0.71875
vt 0 1
vt 0 1
vt 0 1
vt 0 1
vt 0 0.34375
vt 0 0.34375
vt 0.0883875 0.4375
vt 0.125 0.34911250000000005
vt 0.25 0.875
vt 0.2133875 0.9633875
vt 0.125 0.875
vt 0.125 0.875
vt 0.5 0.46875
vt 0.59375 0.46875
vt 0.59375 0.71875
vt 0.5 0.71875
vt 0 1
vt 0 1
vt 0 1
vt 0 1
vt 0.62768125 0.4375
vt 0.62768125 0.4375
vt 0.62768125 0.5625
vt 0.71606875 0.5258875000000001
vt 0.2133875 0.9633875
vt 0.125 1
vt 0.125 0.875
vt 0.125 0.875
vt 0.375 0.46875
vt 0.46875 0.46875
vt 0.46875 0.71875
vt 0.375 0.71875
vt 0 1
vt 0 1
vt 0 1
vt 0 1
vt 0.46875 0.3125
vt 0.46875 0.3125
vt 0.375 0.40088749999999995
vt 0.4633875 0.4375
vt 0.125 1
vt 0.036612500000000006 0.9633875
vt 0.125 0.875
vt 0.125 0.875
vt 0.375 0.75
vt 0.46875 0.75
vt 0.46875 1
vt 0.375 1
vt 0 1
vt 0 1
vt 0 1
vt 0 1
vt 0.625 0.34375
vt 0.625 0.34375
vt 0.5 0.34911250000000005
vt 0.5366125 0.4375
vt 0.036612500000000006 0.9633875
vt 0 0.875
vt 0.125 0.875
vt 0.125 0.875
vt 0.25 0.5
vt 0.34375 0.5
vt 0.34375 0.75
vt 0.25 0.75
vt 0 1
vt 0 1
vt 0 1
vt 0 1
vt 0.78125 0.40625
vt 0.78125 0.40625
vt 0.6928625 0.31786250000000005
vt 0.65625 0.40625
vt 0 0.875
vt 0.036612500000000006 0.7866124999999999
vt 0.125 0.875
vt 0.125 0.875
vt 0.25 0.21875
vt 0.34375 0.21875
vt 0.34375 0.46875
vt 0.25 0.46875
vt 0 1
vt 0 1
vt 0 1
vt 0 1
vt 0.71875 1
vt 0.71875 1
vt 0.7133875 0.875
vt 0.625 0.9116125
vt 0.036612500000000006 0.7866124999999999
vt 0.125 0.75
vt 0.125 0.875
vt 0.125 0.875
vn 0.3826834323650898 0 0.9238795325112867
vn 0 0 0
vn 0 0 0
vn 0 1 0
vn 0.9238795325112867 0 0.3826834323650899
vn 0 0 0
vn 0 0 0
vn 0 1 0
vn 0.9238795325112868 0 -0.3826834323650898
vn 0 0 0
vn 0 0 0
vn 0 1 0
vn 0.3826834323650899 0 -0.9238795325112867
vn 0 0 0
vn 0 0 0
vn 0 1 0
vn -0.38268343236508956 0 -0.9238795325112868
vn 0 0 0
vn 0 0 0
vn 0 1 0
vn -0.9238795325112867 0 -0.3826834323650899
vn 0 0 0
vn 0 0 0
vn 0 1 0
vn -0.9238795325112868 0 0.38268343236508956
vn 0 0 0
vn 0 0 0
vn 0 1 0
vn -0.38268343236509 0 0.9238795325112868
vn 0 0 0
vn 0 0 0
vn 0 1 0
usemtl m_636f74a2-89c7-1770-cb3d-1dc42be1b0e7
f 27/113/33 31/114/33 32/115/33 28/116/33
f 30/117/34 34/118/34 33/119/34 29/120/34
f 29/121/35 33/122/35 31/123/35 27/124/35
f 28/125/36 32/126/36 34/127/36 30/128/36
f 31/129/37 35/130/37 36/131/37 32/132/37
f 34/133/38 38/134/38 37/135/38 33/136/38
f 33/137/39 37/138/39 35/139/39 31/140/39
f 32/141/40 36/142/40 38/143/40 34/144/40
f 35/145/41 39/146/41 40/147/41 36/148/41
f 38/149/42 42/150/42 41/151/42 37/152/42
f 37/153/43 41/154/43 39/155/43 35/156/43
f 36/157/44 40/158/44 42/159/44 38/160/44
f 39/161/45 43/162/45 44/163/45 40/164/45
f 42/165/46 46/166/46 45/167/46 41/168/46
f 41/169/47 45/170/47 43/171/47 39/172/47
f 40/173/48 44/174/48 46/175/48 42/176/48
f 43/177/49 47/178/49 48/179/49 44/180/49
f 46/181/50 50/182/50 49/183/50 45/184/50
f 45/185/51 49/186/51 47/187/51 43/188/51
f 44/189/52 48/190/52 50/191/52 46/192/52
f 47/193/53 51/194/53 52/195/53 48/196/53
f 50/197/54 54/198/54 53/199/54 49/200/54
f 49/201/55 53/202/55 51/203/55 47/204/55
f 48/205/56 52/206/56 54/207/56 50/208/56
f 51/209/57 55/210/57 56/211/57 52/212/57
f 54/213/58 58/214/58 57/215/58 53/216/58
f 53/217/59 57/218/59 55/219/59 51/220/59
f 52/221/60 56/222/60 58/223/60 54/224/60
f 55/225/61 27/226/61 28/227/61 56/228/61
f 58/229/62 30/230/62 29/231/62 57/232/62
f 57/233/63 29/234/63 27/235/63 55/236/63
f 56/237/64 28/238/64 30/239/64 58/240/64
o pyramid
v 0 0.75 -0.125
v -0.030696950992243177 0 0.049091060080004745
v 0.17409106008000474 0 -0.09430304900775682
v -0.17409106008000474 0 -0.15569695099224318
v 0.030696950992243177 0 -0.29909106008000474
vt 0.4375 0.875
vt 0.4375 1
vt 0.3125 1
vt 0.3125 0.875
vt 0.28207785446411765 0.44750261589838836
vt 0.4054221455358823 0.4272248975848354
vt 0.40542214553588235 0.8125
vt 0.00082785446411765 0.6350026158983884
vt 0.12417214553588228 0.6147248975848354
vt 0.12417214553588235 1
vt 0.15707785446411765 0.6350026158983884
vt 0.2804221455358823 0.6147248975848354
vt 0.28042214553588235 1
vt 0.40707785446411765 0.26000261589838836
vt 0.5304221455358823 0.2397248975848354
vt 0.5304221455358824 0.625
vn 0 -1 0
vn 0.5657723116699663 0.1643989873053573 0.8080065991813405
vn -0.8080065991813405 0.1643989873053573 0.5657723116699663
vn 0.8080065991813405 0.1643989873053573 -0.5657723116699663
vn -0.5657723116699663 0.1643989873053573 -0.8080065991813405
usemtl m_40cb975c-3fd4-2e1b-d9f0-e8d9aeca94ae
f 61/241/65 60/242/65 62/243/65 63/244/65
f 60/245/66 61/246/66 59/247/66
f 62/248/67 60/249/67 59/250/67
f 61/251/68 63/252/68 59/253/68
f 63/254/69 62/255/69 59/256/69
o pyramid
v 0 0.75 0.125
v 0.17409106008000474 0 0.09430304900775682
v -0.030696950992243177 0 -0.049091060080004745
v 0.030696950992243177 0 0.29909106008000474
v -0.17409106008000474 0 0.15569695099224318
vt 0.4375 0.875
vt 0.4375 1
vt 0.3125 1
vt 0.3125 0.875
vt 0.28207785446411765 0.44750261589838836
vt 0.4054221455358823 0.4272248975848354
vt 0.40542214553588235 0.8125
vt 0.00082785446411765 0.6350026158983884
vt 0.12417214553588228 0.6147248975848354
vt 0.12417214553588235 1
vt 0.15707785446411765 0.6350026158983884
vt 0.2804221455358823 0.6147248975848354
vt 0.28042214553588235 1
vt 0.40707785446411765 0.26000261589838836
vt 0.5304221455358823 0.2397248975848354
vt 0.5304221455358824 0.625
vn 0 -1 0
vn 0.5657723116699663 0.1643989873053573 -0.8080065991813405
vn 0.8080065991813405 0.1643989873053573 0.5657723116699663
vn -0.8080065991813405 0.1643989873053573 -0.5657723116699663
vn -0.5657723116699663 0.1643989873053573 0.8080065991813405
usemtl m_40cb975c-3fd4-2e1b-d9f0-e8d9aeca94ae
f 66/257/70 65/258/70 67/259/70 68/260/70
f 65/261/71 66/262/71 64/263/71
f 67/264/72 65/265/72 64/266/72
f 66/267/73 68/268/73 64/269/73
f 68/270/74 67/271/74 64/272/74