{"asset":{"version":"2.0","generator":"Blockbench 4.12.4 glTF exporter"},"scenes":[{"nodes":[4],"name":"blockbench_export"}],"scene":0,"nodes":[{"translation":[0,1,0],"name":"sphere","mesh":0},{"translation":[0,0.25,0],"name":"tube","mesh":1},{"rotation":[0,-0.46174861323503386,0,0.8870108331782217],"translation":[0,0,-0.125],"name":"pyramid","mesh":2},{"rotation":[0,0.46174861323503386,0,0.8870108331782217],"translation":[0,0,0.125],"name":"pyramid","mesh":3},{"children":[0,1,2,3]}],"bufferViews":[{"buffer":0,"byteOffset":0,"byteLength":1344,"target":34962,"byteStride":12},{"buffer":0,"byteOffset":1344,"byteLength":1344,"target":34962,"byteStride":12},{"buffer":0,"byteOffset":2688,"byteLength":896,"target":34962,"byteStride":8},{"buffer":0,"byteOffset":3584,"byteLength":288,"target":34963},{"buffer":0,"byteOffset":3872,"byteLength":1536,"target":34962,"byteStride":12},{"buffer":0,"byteOffset":5408,"byteLength":1536,"target":34962,"byteStride":12},{"buffer":0,"byteOffset":6944,"byteLength":1024,"target":34962,"byteStride":8},{"buffer":0,"byteOffset":7968,"byteLength":384,"target":34963},{"buffer":0,"byteOffset":8352,"byteLength":192,"target":34962,"byteStride":12},{"buffer":0,"byteOffset":8544,"byteLength":192,"target":34962,"byteStride":12},{"buffer":0,"byteOffset":8736,"byteLength":128,"target":34962,"byteStride":8},{"buffer":0,"byteOffset":8864,"byteLength":36,"target":34963},{"buffer":0,"byteOffset":8900,"byteLength":192,"target":34962,"byteStride":12},{"buffer":0,"byteOffset":9092,"byteLength":192,"target":34962,"byteStride":12},{"buffer":0,"byteOffset":9284,"byteLength":128,"target":34962,"byteStride":8},{"buffer":0,"byteOffset":9412,"byteLength":36,"target":34963}],"buffers":[{"byteLength":9448,"uri":"data:application/octet-stream;base64,"}],"accessors":[{"bufferView":0,"componentType":5126,"count":112,"max":[0.25,0.25,0.25],"min":[-0.25,-0.25,-0.25],"type":"VEC3"},{"bufferView":1,"componentType":5126,"count":112,"max":[0.9238795042037964,0.9238795042037964,0.9238795042037964],"min":[-0.9238795042037964,-0.9238795042037964,-0.9238795042037964],"type":"VEC3"},{"bufferView":2,"componentType":5126,"count":112,"max":[0.71875,0.75],"min":[0,0],"type":"VEC2"},{"bufferView":3,"componentType":5123,"count":144,"max":[111],"min":[0],"type":"SCALAR"},{"bufferView":4,"componentType":5126,"count":128,"max":[0.25,0.5,0.25],"min":[-0.25,0,-0.25],"type":"VEC3"},{"bufferView":5,"componentType":5126,"count":128,"max":[1,1,0.9238795042037964],"min":[-0.9238795042037964,0,-0.9238795042037964],"type":"VEC3"},{"bufferView":6,"componentType":5126,"count":128,"max":[0.7813000082969666,0.78125],"min":[0,0],"type":"VEC2"},{"bufferView":7,"componentType":5123,"count":192,"max":[127],"min":[0],"type":"SCALAR"},{"bufferView":8,"componentType":5126,"count":16,"max":[0.125,0.75,0.125],"min":[-0.125,0,-0.125],"type":"VEC3"},{"bufferView":9,"componentType":5126,"count":16,"max":[0.986393928527832,0.16439898312091827,0.986393928527832],"min":[-0.986393928527832,-1,-0.986393928527832],"type":"VEC3"},{"bufferView":10,"componentType":5126,"count":16,"max":[0.5304221510887146,0.76027512550354],"min":[0.0008278544410131872,0],"type":"VEC2"},{"bufferView":11,"componentType":5123,"count":18,"max":[15],"min":[0],"type":"SCALAR"},{"bufferView":12,"componentType":5126,"count":16,"max":[0.125,0.75,0.125],"min":[-0.125,0,-0.125],"type":"VEC3"},{"bufferView":13,"componentType":5126,"count":16,"max":[0.986393928527832,0.16439898312091827,0.986393928527832],"min":[-0.986393928527832,-1,-0.986393928527832],"type":"VEC3"},{"bufferView":14,"componentType":5126,"count":16,"max":[0.5304221510887146,0.76027512550354],"min":[0.0008278544410131872,0],"type":"VEC2"},{"bufferView":15,"componentType":5123,"count":18,"max":[15],"min":[0],"type":"SCALAR"}],"materials":[{"pbrMetallicRoughness":{"metallicFactor":0,"roughnessFactor":1,"baseColorTexture":{"index":0}},"alphaMode":"MASK","alphaCutoff":0.05,"doubleSided":true},{"pbrMetallicRoughness":{"metallicFactor":0,"roughnessFactor":1,"baseColorTexture":{"index":1}},"alphaMode":"MASK","alphaCutoff":0.05,"doubleSided":true},{"pbrMetallicRoughness":{"metallicFactor":0,"roughnessFactor":1,"baseColorTexture":{"index":2}},"alphaMode":"MASK","alphaCutoff":0.05,"doubleSided":true}],"textures":[{"sampler":0,"source":0,"name":"diginHead"},{"sampler":1,"source":1,"name":"diginBody"},{"sampler":2,"source":2,"name":"diginFoot"}],"samplers":[{"magFilter":9728,"minFilter":9728,"wrapS":33071,"wrapT":33071},{"magFilter":9728,"minFilter":9728,"wrapS":33071,"wrapT":33071},{"magFilter":9728,"minFilter":9728,"wrapS":33071,"wrapT":33071}],"images":[{"mimeType":"image/png","uri":"data:image/png;base64,"},{"mimeType":"image/png","uri":"data:image/png;base64,"},{"mimeType":"image/png","uri":"data:image/png;base64,"}],"meshes":[{"primitives":[{"mode":4,"attributes":{"POSITION":0,"NORMAL":1,"TEXCOORD_0":2},"indices":3,"material":0}]},{"primitives":[{"mode":4,"attributes":{"POSITION":4,"NORMAL":5,"TEXCOORD_0":6},"indices":7,"material":1}]},{"primitives":[{"mode":4,"attributes":{"POSITION":8,"NORMAL":9,"TEXCOORD_0":10},"indices":11,"material":2}]},{"primitives":[{"mode":4,"attributes":{"POSITION":12,"NORMAL":13,"TEXCOORD_0":14},"indices":15,"material":2}]}]}